<svg xmlns="http://www.w3.org/2000/svg" xml:space="preserve" style="enable-background:new 0 0 200.5 200.5" viewBox="0 0 200.5 200.5"><path d="m200.5 73.39-20.35-19.26-6.51-27.26-27.26-6.51L127.11 0l-26.86 7.99L73.39 0 54.12 20.35l-27.26 6.51-6.51 27.26L0 73.39l8 26.86-8 26.86 20.36 19.26 6.51 27.26 27.26 6.51 19.26 20.35 26.86-7.99 26.86 7.99 19.26-20.35 27.26-6.51 6.51-27.26 20.35-19.26-7.99-26.86 8-26.86zm-21.08 48.07.69 24.89-21.9 11.85-11.85 21.9-24.89-.68-21.21 13.04-21.22-13.04-24.89.68-11.85-21.9-21.9-11.85.69-24.89-13.06-21.21 13.04-21.22-.68-24.89 21.9-11.86 11.85-21.9 24.89.69 21.22-13.04 21.22 13.04 24.89-.69 11.85 21.9 21.9 11.85-.69 24.89 13.04 21.22-13.04 21.22z" style="opacity:.7"/><path d="m180.11 54.14-21.9-11.85-11.85-21.9-24.89.69-21.22-13.05-21.22 13.05-24.89-.69-11.85 21.9-21.9 11.86.68 24.89-13.04 21.21 13.04 21.21-.69 24.89 21.9 11.85 11.85 21.9 24.89-.68 21.22 13.04 21.21-13.04 24.89.68 11.85-21.9 21.9-11.85-.69-24.89 13.04-21.21-13.04-21.22.71-24.89zm-53.79 82.13h-19.1l-3.6-20.2c-1.5-8.4-3.1-18.5-3.4-22.9h-.1c-.2 3.5-1.7 13.8-3.4 22.9l-3.7 20.2h-19.5l-16.9-69.7h18.9l3.9 18.8c3.3 15.7 3.9 23.5 4 26.1h.1c.4-5.6 1.6-15.3 3.5-25.6l3.6-19.3h19.9l4.5 23.3c1 5.3 2.4 13 2.8 21.5h.1c.4-6.2 2.5-20.7 3.9-27.5l3.5-17.3h19.1l-18.1 69.7z"/></svg>